<svg xmlns="http://www.w3.org/2000/svg" xmlns:xlink="http://www.w3.org/1999/xlink" width="2000" zoomAndPan="magnify" viewBox="0 0 1500 1499.999933" height="2000" preserveAspectRatio="xMidYMid meet" version="1.0"><defs><clipPath id="8e8df03987"><path d="M 536 543 L 964 543 L 964 972 L 536 972 Z M 536 543 " clip-rule="nonzero"/></clipPath><clipPath id="55121bf92c"><path d="M 536.265625 757.441406 L 750.011719 543.695312 L 963.761719 757.441406 L 750.011719 971.1875 Z M 536.265625 757.441406 " clip-rule="nonzero"/></clipPath><clipPath id="af27ffcf3c"><path d="M 37 286 L 622 286 L 622 871 L 37 871 Z M 37 286 " clip-rule="nonzero"/></clipPath><clipPath id="b75b28ba12"><path d="M 37.503906 742.503906 L 493.167969 286.839844 L 621.597656 415.273438 L 165.933594 870.9375 Z M 37.503906 742.503906 " clip-rule="nonzero"/></clipPath><clipPath id="758487b6e1"><path d="M 621 30 L 1221 30 L 1221 630 L 621 630 Z M 621 30 " clip-rule="nonzero"/></clipPath><clipPath id="43008f506c"><path d="M 749.949219 30.023438 L 1220.558594 500.636719 L 1092.128906 629.066406 L 621.519531 158.457031 Z M 749.949219 30.023438 " clip-rule="nonzero"/></clipPath><clipPath id="b484934033"><path d="M 294 870 L 894 870 L 894 1470 L 294 1470 Z M 294 870 " clip-rule="nonzero"/></clipPath><clipPath id="f34224cda7"><path d="M 422.714844 870.984375 L 893.324219 1341.59375 L 764.894531 1470.023438 L 294.285156 999.414062 Z M 422.714844 870.984375 " clip-rule="nonzero"/></clipPath><clipPath id="2344cfec3f"><path d="M 878 644 L 1463 644 L 1463 1229 L 878 1229 Z M 878 644 " clip-rule="nonzero"/></clipPath><clipPath id="b03de802fc"><path d="M 878.460938 1099.628906 L 1334.128906 643.964844 L 1462.558594 772.394531 L 1006.894531 1228.058594 Z M 878.460938 1099.628906 " clip-rule="nonzero"/></clipPath></defs><rect x="-150" width="1800" fill="#ffffff" y="-149.999993" height="1799.99992" fill-opacity="1"/><rect x="-150" width="1800" fill="#05e0e9" y="-149.999993" height="1799.99992" fill-opacity="1"/><g clip-path="url(#8e8df03987)"><g clip-path="url(#55121bf92c)"><path fill="#ff2768" d="M 536.265625 757.441406 L 750.011719 543.695312 L 963.761719 757.441406 L 750.011719 971.1875 Z M 536.265625 757.441406 " fill-opacity="1" fill-rule="nonzero"/></g></g><g clip-path="url(#af27ffcf3c)"><g clip-path="url(#b75b28ba12)"><path fill="#ff2768" d="M 37.503906 742.503906 L 493.03125 286.976562 L 621.464844 415.40625 L 165.933594 870.9375 Z M 37.503906 742.503906 " fill-opacity="1" fill-rule="nonzero"/></g></g><g clip-path="url(#758487b6e1)"><g clip-path="url(#43008f506c)"><path fill="#ff2768" d="M 749.949219 30.023438 L 1220.53125 500.605469 L 1092.097656 629.035156 L 621.519531 158.457031 Z M 749.949219 30.023438 " fill-opacity="1" fill-rule="nonzero"/></g></g><g clip-path="url(#b484934033)"><g clip-path="url(#f34224cda7)"><path fill="#ff2768" d="M 422.714844 870.984375 L 893.296875 1341.566406 L 764.863281 1469.996094 L 294.285156 999.414062 Z M 422.714844 870.984375 " fill-opacity="1" fill-rule="nonzero"/></g></g><g clip-path="url(#2344cfec3f)"><g clip-path="url(#b03de802fc)"><path fill="#ff2768" d="M 878.460938 1099.628906 L 1333.992188 644.097656 L 1462.421875 772.53125 L 1006.894531 1228.058594 Z M 878.460938 1099.628906 " fill-opacity="1" fill-rule="nonzero"/></g></g></svg>